<mxfile host="app.diagrams.net" modified="2022-03-30T11:09:56.095Z" agent="5.0 (Windows NT 10.0; Win64; x64) AppleWebKit/537.36 (KHTML, like Gecko) Chrome/99.0.4844.84 Safari/537.36" etag="98-3xeMsIJ8DeNDzXDZk" version="17.1.3" type="github">
  <diagram id="D_ejFvijXAPhIFrV98Vy" name="Page-1">
    <mxGraphModel dx="989" dy="1713" grid="1" gridSize="10" guides="1" tooltips="1" connect="1" arrows="1" fold="1" page="1" pageScale="1" pageWidth="827" pageHeight="1169" math="0" shadow="0">
      <root>
        <mxCell id="0" />
        <mxCell id="1" parent="0" />
        <mxCell id="zlcFvY1JKafBWj73im1r-41" value="" style="edgeStyle=orthogonalEdgeStyle;rounded=0;orthogonalLoop=1;jettySize=auto;html=1;" edge="1" parent="1" source="zlcFvY1JKafBWj73im1r-2" target="zlcFvY1JKafBWj73im1r-38">
          <mxGeometry relative="1" as="geometry" />
        </mxCell>
        <mxCell id="zlcFvY1JKafBWj73im1r-2" value="index.html" style="shape=document;whiteSpace=wrap;html=1;boundedLbl=1;fillColor=#fad7ac;strokeColor=#b46504;" vertex="1" parent="1">
          <mxGeometry x="320" y="30" width="120" height="80" as="geometry" />
        </mxCell>
        <mxCell id="zlcFvY1JKafBWj73im1r-18" value="" style="edgeStyle=orthogonalEdgeStyle;rounded=0;orthogonalLoop=1;jettySize=auto;html=1;" edge="1" parent="1" source="zlcFvY1JKafBWj73im1r-6" target="zlcFvY1JKafBWj73im1r-17">
          <mxGeometry relative="1" as="geometry" />
        </mxCell>
        <mxCell id="zlcFvY1JKafBWj73im1r-6" value="User authorizes our application" style="shape=manualInput;whiteSpace=wrap;html=1;fillColor=#fff2cc;strokeColor=#d6b656;gradientColor=none;" vertex="1" parent="1">
          <mxGeometry x="160" y="140" width="120" height="80" as="geometry" />
        </mxCell>
        <mxCell id="zlcFvY1JKafBWj73im1r-9" value="Redirect user to Github authorization URL" style="shape=document;whiteSpace=wrap;html=1;boundedLbl=1;fillColor=#fad7ac;strokeColor=#b46504;" vertex="1" parent="1">
          <mxGeometry y="30" width="120" height="80" as="geometry" />
        </mxCell>
        <mxCell id="zlcFvY1JKafBWj73im1r-17" value="Redirects to index.html" style="shape=document;whiteSpace=wrap;html=1;boundedLbl=1;fillColor=#fad7ac;strokeColor=#b46504;" vertex="1" parent="1">
          <mxGeometry x="320" y="140" width="120" height="80" as="geometry" />
        </mxCell>
        <mxCell id="zlcFvY1JKafBWj73im1r-24" value="" style="edgeStyle=orthogonalEdgeStyle;rounded=0;orthogonalLoop=1;jettySize=auto;html=1;" edge="1" parent="1" source="zlcFvY1JKafBWj73im1r-21" target="zlcFvY1JKafBWj73im1r-23">
          <mxGeometry relative="1" as="geometry" />
        </mxCell>
        <mxCell id="zlcFvY1JKafBWj73im1r-21" value="Store code from&amp;nbsp; &amp;nbsp;&lt;br&gt;URL parameters&amp;nbsp; &amp;nbsp;&amp;nbsp;&lt;br&gt;in session" style="shape=dataStorage;whiteSpace=wrap;html=1;fixedSize=1;gradientColor=none;fillColor=#d5e8d4;strokeColor=#82b366;" vertex="1" parent="1">
          <mxGeometry x="160" y="260" width="120" height="80" as="geometry" />
        </mxCell>
        <mxCell id="zlcFvY1JKafBWj73im1r-33" value="" style="edgeStyle=orthogonalEdgeStyle;rounded=0;orthogonalLoop=1;jettySize=auto;html=1;" edge="1" parent="1" source="zlcFvY1JKafBWj73im1r-23" target="zlcFvY1JKafBWj73im1r-29">
          <mxGeometry relative="1" as="geometry" />
        </mxCell>
        <mxCell id="zlcFvY1JKafBWj73im1r-23" value="fetch POST request from Github API" style="rounded=0;whiteSpace=wrap;html=1;fillColor=#fad7ac;strokeColor=#b46504;" vertex="1" parent="1">
          <mxGeometry x="160" y="380" width="120" height="60" as="geometry" />
        </mxCell>
        <mxCell id="zlcFvY1JKafBWj73im1r-28" value="" style="edgeStyle=orthogonalEdgeStyle;rounded=0;orthogonalLoop=1;jettySize=auto;html=1;" edge="1" parent="1" source="zlcFvY1JKafBWj73im1r-25" target="zlcFvY1JKafBWj73im1r-27">
          <mxGeometry relative="1" as="geometry" />
        </mxCell>
        <mxCell id="zlcFvY1JKafBWj73im1r-32" value="" style="edgeStyle=orthogonalEdgeStyle;rounded=0;orthogonalLoop=1;jettySize=auto;html=1;" edge="1" parent="1" source="zlcFvY1JKafBWj73im1r-25">
          <mxGeometry relative="1" as="geometry">
            <mxPoint x="220" y="760" as="targetPoint" />
          </mxGeometry>
        </mxCell>
        <mxCell id="zlcFvY1JKafBWj73im1r-25" value="Store token in session" style="shape=dataStorage;whiteSpace=wrap;html=1;fixedSize=1;gradientColor=none;fillColor=#d5e8d4;strokeColor=#82b366;" vertex="1" parent="1">
          <mxGeometry x="160" y="600" width="120" height="80" as="geometry" />
        </mxCell>
        <mxCell id="zlcFvY1JKafBWj73im1r-27" value="User authorized successfully" style="rounded=1;whiteSpace=wrap;html=1;fillColor=#cdeb8b;strokeColor=#36393d;" vertex="1" parent="1">
          <mxGeometry x="160" y="720" width="120" height="60" as="geometry" />
        </mxCell>
        <mxCell id="zlcFvY1JKafBWj73im1r-34" value="yes" style="edgeStyle=orthogonalEdgeStyle;rounded=0;orthogonalLoop=1;jettySize=auto;html=1;" edge="1" parent="1" source="zlcFvY1JKafBWj73im1r-29" target="zlcFvY1JKafBWj73im1r-25">
          <mxGeometry relative="1" as="geometry" />
        </mxCell>
        <mxCell id="zlcFvY1JKafBWj73im1r-29" value="is token &lt;br&gt;loaded succesfully?" style="rhombus;whiteSpace=wrap;html=1;fillColor=#cce5ff;strokeColor=#36393d;" vertex="1" parent="1">
          <mxGeometry x="170" y="460" width="100" height="100" as="geometry" />
        </mxCell>
        <mxCell id="zlcFvY1JKafBWj73im1r-35" value="no&lt;br&gt;" style="endArrow=classic;html=1;rounded=0;exitX=1;exitY=0.5;exitDx=0;exitDy=0;" edge="1" parent="1" source="zlcFvY1JKafBWj73im1r-29" target="zlcFvY1JKafBWj73im1r-36">
          <mxGeometry x="-0.8507" width="50" height="50" relative="1" as="geometry">
            <mxPoint x="460" y="720" as="sourcePoint" />
            <mxPoint x="400" y="120" as="targetPoint" />
            <Array as="points">
              <mxPoint x="530" y="510" />
            </Array>
            <mxPoint as="offset" />
          </mxGeometry>
        </mxCell>
        <mxCell id="zlcFvY1JKafBWj73im1r-37" value="" style="edgeStyle=orthogonalEdgeStyle;rounded=0;orthogonalLoop=1;jettySize=auto;html=1;" edge="1" parent="1" source="zlcFvY1JKafBWj73im1r-36" target="zlcFvY1JKafBWj73im1r-2">
          <mxGeometry relative="1" as="geometry" />
        </mxCell>
        <mxCell id="zlcFvY1JKafBWj73im1r-36" value="Indicate authorization failure" style="shape=display;whiteSpace=wrap;html=1;fillColor=#fff2cc;strokeColor=#d6b656;" vertex="1" parent="1">
          <mxGeometry x="480" y="40" width="100" height="60" as="geometry" />
        </mxCell>
        <mxCell id="zlcFvY1JKafBWj73im1r-43" value="" style="edgeStyle=orthogonalEdgeStyle;rounded=0;orthogonalLoop=1;jettySize=auto;html=1;" edge="1" parent="1" source="zlcFvY1JKafBWj73im1r-38" target="zlcFvY1JKafBWj73im1r-9">
          <mxGeometry relative="1" as="geometry" />
        </mxCell>
        <mxCell id="zlcFvY1JKafBWj73im1r-38" value="User clicks Github button" style="rounded=0;whiteSpace=wrap;html=1;fillColor=#fad7ac;strokeColor=#b46504;" vertex="1" parent="1">
          <mxGeometry x="160" y="40" width="120" height="60" as="geometry" />
        </mxCell>
        <mxCell id="zlcFvY1JKafBWj73im1r-40" value="" style="edgeStyle=orthogonalEdgeStyle;rounded=0;orthogonalLoop=1;jettySize=auto;html=1;" edge="1" parent="1" source="zlcFvY1JKafBWj73im1r-39" target="zlcFvY1JKafBWj73im1r-2">
          <mxGeometry relative="1" as="geometry" />
        </mxCell>
        <mxCell id="zlcFvY1JKafBWj73im1r-39" value="Start githubAuthorization" style="rounded=1;whiteSpace=wrap;html=1;fillColor=#cdeb8b;strokeColor=#36393d;" vertex="1" parent="1">
          <mxGeometry x="160" y="-60" width="120" height="60" as="geometry" />
        </mxCell>
        <mxCell id="zlcFvY1JKafBWj73im1r-44" value="" style="endArrow=classic;html=1;rounded=0;entryX=0;entryY=0.75;entryDx=0;entryDy=0;" edge="1" parent="1" target="zlcFvY1JKafBWj73im1r-6">
          <mxGeometry width="50" height="50" relative="1" as="geometry">
            <mxPoint x="60" y="100" as="sourcePoint" />
            <mxPoint x="60" y="200" as="targetPoint" />
            <Array as="points">
              <mxPoint x="60" y="200" />
            </Array>
          </mxGeometry>
        </mxCell>
        <mxCell id="zlcFvY1JKafBWj73im1r-45" value="" style="endArrow=classic;html=1;rounded=0;entryX=1;entryY=0.5;entryDx=0;entryDy=0;exitX=0.497;exitY=0.895;exitDx=0;exitDy=0;exitPerimeter=0;" edge="1" parent="1" source="zlcFvY1JKafBWj73im1r-17" target="zlcFvY1JKafBWj73im1r-21">
          <mxGeometry width="50" height="50" relative="1" as="geometry">
            <mxPoint x="380" y="230" as="sourcePoint" />
            <mxPoint x="360" y="280" as="targetPoint" />
            <Array as="points">
              <mxPoint x="380" y="300" />
            </Array>
          </mxGeometry>
        </mxCell>
      </root>
    </mxGraphModel>
  </diagram>
</mxfile>
